<svg id="레이어_1" data-name="레이어 1" xmlns="http://www.w3.org/2000/svg" viewBox="0 0 400 400"><title>상진이</title><path d="M42.86,104.34c-2.19-10.4-1.3-12,8.54-12.73,5.4-.4,5.65-3.12,4.88-7.26-1-5.62.55-9.39,7-10.06C84.9,72,104.12,63.58,121.93,51.54c10-6.73,19.43-14.45,30.1-19.78,8.37-4.19,18.18-5.63,27.46-7.89,6-1.44,10.5-3.56,10.88-10.69s4.81-9.06,11.25-7.85,13.1,2,19.45,3.75c4.43,1.2,9.08,6.38,10.56-3.11.13-.84,7.68-2.16,10.22-.64,5.42,3.26,9.89,8.16,14.63,12.52,2.93,2.7,4.95,5.32,9.14.64,1.82-2,8.29-2.6,10.6-.95a64.4,64.4,0,0,1,14.31,14.51c22.52,31,42.55,63.56,55.24,99.81,4.89,14,5.06,29.53,8.22,44.18,1.1,5.08,4.25,10,7.35,14.32,6.48,9.07,14.2,17.29,20.17,26.65,4.55,7.15,4.1,15.63.45,23.44-8.18,17.51-19.56,31.39-39.91,35.39-1.88.37-4.35,4-4.46,6.16-1.8,35.86-18.72,64.53-45.11,86.77C274,384.36,251.23,396.08,226,391.11c-16-3.16-31.22-11.83-45.85-19.76-12.47-6.75-23.49-16.15-35.43-24-2.15-1.4-5.65-1.16-8.49-1-26.74,1.5-52.42-16.58-57.13-37.94-1.88-8.54-.21-17.86-.29-26.82,0-2.59.06-5.43-.92-7.71-11.42-26.64-22.88-53.27-34.75-79.72-2.38-5.3-7.13-9.52-9.71-14.77-6.88-14-13.5-28.1-19.33-42.53-1-2.44,2.36-6.73,3.93-10.05,1.07-2.26,3.71-4.38,3.61-6.47-.6-12.47-.81-12.53,11.45-15C36.3,104.74,39.59,104.67,42.86,104.34ZM143,124.83c1.71-5.32,3.19-10.74,5.27-15.92.64-1.61,2.9-2.58,4.43-3.84a33.93,33.93,0,0,1,3.6,4.66c2,3.8,3.72,7.74,6.38,13.36,2.64-5.23,4.44-8.59,6.06-12,6-12.8,6-12.81,14.33-3.67l10.29-9.93,7.29,8c10.25-16.64,11.55-17,18.16-4.89,8.26-11.31,8.45-11.29,15.92,1.08,7.92-12.19,8-12.19,16.45-.15a19.74,19.74,0,0,1,1.71,2.11c2.78,5.47,5.36,6.76,9.2.54,3.68-6,7.55-6.13,11,.78,1.67,3.37,4.34,6.25,6.86,9.78,2.07-2.28,3.5-3.8,4.86-5.37,3.59-4.12,7-3.57,9.24,1,8.59,18,19.16,35.19,21.68,55.7.77,6.28,1.3,12.67,7.54,18,5.78,4.9,8.34-.33,11.58-1.45s7.61-5.86,7.17-8.19c-3.58-19-5.49-38.92-13.08-56.31-11.54-26.46-27.11-51.18-41.27-76.47-2.68-4.8-6.74-8.83-10.17-13.22-2,2.53-1.88,3.73-2,4.91-.47,4.47-1,8.94-1.54,13.4-3.46-2.94-7.26-5.56-10.3-8.89C256.54,30,249.8,21.89,241.8,12.62c-.33,3.13-.48,3.73-.44,4.31.25,3.12.54,6.24.82,9.36-2.82-.65-5.78-.95-8.43-2-8.05-3.27-16-6.73-23.93-10.32-5.38-2.44-8.56-2.75-9.5,4.83-1.13,9.07-6.44,13.18-16.56,14-9.15.69-18.68,4.3-26.8,8.84-12.23,6.85-22.67,17.06-35.17,23.2C106.44,72.3,89.7,77,73.72,83.27c-2.66,1-6.85,5-6.42,6.08,3.61,9.57-2,9.93-8.87,10.44-3,.22-7.67.2-4.9,6.51,3,6.77,1.11,10.21-7.5,8.06-4.41-1.1-9.49.43-14.26.78,1.36,4.08,2.83,8.13,4.05,12.25,1.07,3.6,1.86,7.28,2.77,10.93l-11.31.92c10.1,19.79,19.93,39,29.7,58.2,11.12,21.87,22.71,43.53,33,65.8,2.86,6.22,3.76,11.15,12.2,7.27-2.8-7-6.48-13.71-8.12-20.88-2.45-10.67-5.91-22-4.57-32.47,3.27-25.43,8.84-50.57,14-75.72,1.1-5.36,4.08-10.48,6.87-15.32,3.11-5.37,6.69-4.47,10.49,0,12.19,14.18,12.27,14.11,22.36-1.45-1.6,4.81-3.14,9.65-4.8,14.44s-4.21,7.37-8.8,2.49c-3.22-3.42-7.07-6.38-9.7-10.2-4.05-5.87-6.64-4.58-9.15.89-1.25,2.73-2.78,5.43-3.43,8.32-4,17.49-8.46,34.92-11.32,52.6-2.11,13-4.67,26.86-2.21,39.39a140.48,140.48,0,0,0,17.45,45.63c19,30.95,40.59,60.18,72,80.43,21.29,13.72,43.17,24.42,71.27,19.43L203.37,324.7c3.44-1.84,6.76-3.78,10.21-5.45,17.81-8.59,35.91-16.62,53.35-25.9,7.95-4.23,9.39-1.77,10.6,5.56,3.34,20.24,7.2,40.38,10.82,60.37,6.65-2.7,16.07-12.58,21.15-23.26,9.77-20.57,15.42-42,13.44-65.06-1.49-17.37-2.09-34.82-3.78-52.18-1.19-12.2-4.28-24.23-5.21-36.44-2-26.19-11.7-49.48-25-72.26-1.19,1.36-2.54,2.3-3,3.56-3.42,8.76-7.5,5.42-11.33.56-2.63-3.33-4.73-7.06-7.2-10.82-10.37,13.08-10.37,13.08-19.76-.94-.67-1-1.24-2.79-2-2.86-1.95-.18-4.64-.31-5.82.81-2.3,2.2-3.78,5.26-5.59,8-1.8-2.94-3.64-5.84-5.35-8.82a56.07,56.07,0,0,1-2.19-5.71c-2.68,6-4.49,10-6.77,15.12-2.34-3.25-4.06-5.63-5.78-8-1.11-1.52-2.23-3-3.35-4.53-1.22,1.31-2.73,2.46-3.59,4-2.12,3.76-3.95,7.7-5.89,11.57l-9.23-11c-2.35,4.48-4.65,8.85-6.95,13.21l-10-8.89c-2.75,5.88-5.38,12.15-8.58,18.12-2.37,4.43-5.26,5.77-7.83-.2-1.92-4.45-4.18-8.76-6.5-13.58Zm66.52,200.56c12.73,13.17,24.85,25.67,36.94,38.21,12.89,13.38,12.88,13.39,29,5.68.8-.38,1.91-.5,2.4-1.12,1.79-2.26,4.75-4.65,4.79-7A134.34,134.34,0,0,0,281,339.66c-1.78-12.14-4.07-24.2-6.12-36.29-1.13-6.63-4.51-7.16-10.1-4.42C246.83,307.75,228.69,316.25,209.51,325.39Zm158.81-99.92c.13-18.86-11.36-33.64-28-36.06-7.11-1-12.73,3.68-13.88,10.43-1.74,10.28,4.6,8.5,10.78,8.22,8.94-.4,17.71,6.29,16.11,13-2.53,10.55-6.61,21.2-17.25,26.11-9,4.13-2,10.7-3.88,15.73,3.58.32,7.48,1.69,10.71.76C356.15,259.81,368.21,241.24,368.32,225.47ZM133.7,339c1.25-.69,5.37-1.62,6.39-3.92.86-1.95-1.39-5.83-3.12-8.24-3.67-5.14-8.26-6.48-14.8-4.14-7.64,2.73-19.14-3.38-21.91-11.42-2.47-7.15-1-13.71,6.8-17.45,1.18-.56,2.92-2.65,2.73-3-2.93-4.6-5.44-11.61-9.49-12.7-3.48-.94-11.41,4.07-12.69,8-1.89,5.82-.61,13.24,1,19.53C92.09,319,115,339.44,133.7,339Zm194-119.34c1,5.7,1.62,10.09,2.45,14.45.6,3.15,1.41,6.26,2.13,9.4,3.14-2,7.08-3.47,9.22-6.27a36.29,36.29,0,0,0,6.56-13.4c.68-3-.64-8.64-2.67-9.56-4.25-1.92-9.64-2.19-14.39-1.64C329.5,212.81,328.54,217.74,327.7,219.66ZM118.16,322.57c3.73-4.22,7.94-7.81,7.45-8.63a112.89,112.89,0,0,0-12.14-16.53c-.88-1-5.27-.87-5.84.07-2,3.28-5.19,8.5-3.94,10.5C106.87,313.08,112.2,316.85,118.16,322.57Z"/><path d="M240,200.06c6.29-7.63,12.43-15.38,18.93-22.83,4.74-5.45,9.91-10.53,15-15.68.94-1,3.06-2.35,3.35-2.09,6.2,5.51,12.21,11.23,18.26,16.91-1.43,1-2.74,2.28-4.31,2.89-12.12,4.68-24.37,9.05-36.42,13.92-4.56,1.85-8.68,4.77-13,7.2Z"/><path d="M175.37,219c-3.12.8-5,2-6.37,1.52-14.56-5-29.41-7.81-44.9-6.92-.69,0-1.57-3-2.31-4.68-.05-.09.4-.39.6-.62,13.15-15.48,13.11-15.42,29.89-4.2,6.14,4.11,12.53,7.84,18.78,11.77C172,216.45,172.9,217.18,175.37,219Z"/><path d="M160.14,262.17c10.92,1.57,19.85,2.77,28.73,4.25,1.27.21,2.31,1.79,3.45,2.75-1.25.58-2.52,1.7-3.75,1.66-12.9-.48-25.82-6.28-38.74.21-.53.26-2.49-.84-2.52-1.38a3.5,3.5,0,0,1,1.42-2.84C152.94,264.92,157.28,263.31,160.14,262.17Z"/><path d="M256.13,242.61c2.6-13,17.51-25.92,29.27-26.24Z"/></svg>