<svg id="레이어_1" data-name="레이어 1" xmlns="http://www.w3.org/2000/svg" viewBox="0 0 100 100"><title>svg_100</title><path d="M10.93,25.59c-.55-2.61-.32-3,2.15-3.2,1.36-.1,1.42-.78,1.23-1.83-.26-1.41.14-2.36,1.77-2.53a32,32,0,0,0,14.73-5.71,69.5,69.5,0,0,1,7.57-5,32.91,32.91,0,0,1,6.91-2c1.5-.36,2.64-.9,2.73-2.69S49.23.39,50.85.7s3.29.51,4.89.94c1.11.3,2.28,1.6,2.65-.78A3.57,3.57,0,0,1,61,.7a23.78,23.78,0,0,1,3.68,3.15c.74.67,1.25,1.33,2.3.16a2.73,2.73,0,0,1,2.67-.24A16.15,16.15,0,0,1,73.2,7.42c5.67,7.78,10.7,16,13.89,25.09,1.23,3.51,1.27,7.42,2.07,11.11A10.37,10.37,0,0,0,91,47.22c1.63,2.28,3.57,4.35,5.07,6.7a6,6,0,0,1,.11,5.89c-2,4.4-4.91,7.89-10,8.9A2.06,2.06,0,0,0,85,70.26c-.45,9-4.71,16.22-11.35,21.82C69,96,63.32,98.94,57,97.69c-4-.79-7.85-3-11.53-5-3.13-1.7-5.91-4.07-8.91-6a3.84,3.84,0,0,0-2.13-.25c-6.72.38-13.18-4.17-14.36-9.54-.48-2.15-.06-4.49-.08-6.74a5,5,0,0,0-.23-1.94c-2.87-6.7-5.75-13.4-8.74-20-.59-1.34-1.79-2.4-2.44-3.72C6.84,41,5.18,37.4,3.71,33.78c-.25-.62.6-1.69,1-2.53.27-.57.93-1.1.91-1.63-.15-3.13-.2-3.15,2.88-3.77A24.28,24.28,0,0,1,10.93,25.59Zm25.18,5.15c.43-1.34.8-2.7,1.32-4,.17-.4.73-.65,1.12-1a9.2,9.2,0,0,1,.9,1.18c.51.95.94,1.94,1.61,3.36.66-1.32,1.11-2.16,1.52-3,1.51-3.22,1.51-3.22,3.6-.92l2.59-2.5,1.83,2c2.58-4.19,2.91-4.28,4.57-1.23,2.08-2.84,2.12-2.84,4,.27,2-3.07,2-3.07,4.14,0a5.25,5.25,0,0,1,.43.53c.7,1.38,1.35,1.7,2.31.14s1.9-1.54,2.76.19a20.6,20.6,0,0,0,1.73,2.46c.52-.57.88-1,1.22-1.35.9-1,1.77-.89,2.32.26,2.16,4.53,4.82,8.85,5.46,14,.19,1.58.32,3.19,1.89,4.52s2.1-.08,2.91-.37,1.92-1.47,1.8-2.06c-.89-4.76-1.38-9.78-3.28-14.15C80,22.38,76,16.17,72.48,9.81a26,26,0,0,0-2.56-3.32,1.89,1.89,0,0,0-.5,1.23C69.3,8.85,69.16,10,69,11.09a29.2,29.2,0,0,1-2.59-2.23c-1.78-2-3.48-4-5.49-6.33-.08.79-.12.94-.11,1.08.06.79.14,1.57.21,2.36a14.57,14.57,0,0,1-2.12-.51c-2-.82-4-1.7-6-2.6-1.35-.61-2.15-.69-2.39,1.22-.28,2.28-1.62,3.31-4.16,3.5a17.1,17.1,0,0,0-6.74,2.23c-3.07,1.72-5.7,4.29-8.84,5.83-3.86,1.9-8.07,3.07-12.09,4.65-.67.27-1.72,1.25-1.61,1.53.91,2.41-.51,2.5-2.23,2.63-.76.05-1.93.05-1.23,1.63s.27,2.57-1.89,2a11.9,11.9,0,0,0-3.59.2c.35,1,.72,2,1,3.08s.47,1.83.7,2.75L7,34.36c2.54,5,5,9.81,7.46,14.64,2.8,5.5,5.71,10.94,8.29,16.54.72,1.57.94,2.81,3.07,1.83a37.24,37.24,0,0,1-2.05-5.25c-.61-2.68-1.48-5.53-1.14-8.16.82-6.4,2.22-12.72,3.52-19a13.26,13.26,0,0,1,1.72-3.85c.79-1.35,1.69-1.13,2.64,0,3.07,3.56,3.09,3.54,5.62-.37-.4,1.21-.78,2.43-1.2,3.63s-1.06,1.86-2.22.63a24.5,24.5,0,0,1-2.43-2.57c-1-1.47-1.67-1.15-2.3.23a10.86,10.86,0,0,0-.87,2.09c-1,4.4-2.12,8.78-2.84,13.22-.53,3.27-1.18,6.76-.56,9.91A35.16,35.16,0,0,0,28.12,69.3c4.78,7.78,10.2,15.13,18.1,20.22,5.35,3.45,10.86,6.14,17.92,4.89L51.29,81c.86-.46,1.7-.95,2.57-1.36,4.47-2.17,9-4.18,13.41-6.52,2-1.06,2.36-.44,2.67,1.4.84,5.09,1.81,10.15,2.72,15.18,1.67-.68,4-3.16,5.31-5.85a31.29,31.29,0,0,0,3.38-16.36c-.37-4.36-.52-8.75-.95-13.11-.3-3.07-1.07-6.1-1.31-9.17C78.6,38.62,76.15,32.76,72.8,27c-.3.35-.64.58-.76.9-.86,2.2-1.89,1.36-2.85.14-.66-.84-1.19-1.78-1.81-2.72-2.61,3.29-2.61,3.29-5-.24-.17-.25-.31-.7-.49-.72a2.19,2.19,0,0,0-1.47.21,11,11,0,0,0-1.4,2c-.45-.74-.92-1.47-1.35-2.22A13.46,13.46,0,0,1,57.15,23l-1.7,3.8c-.59-.82-1-1.42-1.46-2-.27-.38-.56-.76-.84-1.14a6.51,6.51,0,0,0-.9,1c-.53.95-1,1.94-1.48,2.91l-2.32-2.76L46.7,28.08l-2.52-2.24c-.69,1.48-1.35,3.06-2.16,4.56-.59,1.11-1.32,1.45-2-.06-.48-1.11-1-2.2-1.63-3.41ZM52.83,81.17c3.21,3.31,6.25,6.45,9.29,9.61,3.24,3.36,3.24,3.36,7.3,1.42.2-.09.48-.12.6-.28.45-.57,1.2-1.17,1.21-1.77a33.65,33.65,0,0,0-.41-5.39c-.45-3.06-1-6.09-1.54-9.13-.29-1.67-1.14-1.8-2.54-1.11C62.22,76.73,57.66,78.87,52.83,81.17ZM92.76,56.05c0-4.75-2.85-8.46-7.05-9.07a3,3,0,0,0-3.49,2.62c-.44,2.59,1.16,2.14,2.71,2.07,2.25-.1,4.46,1.58,4,3.26-.63,2.65-1.66,5.33-4.33,6.56-2.25,1-.51,2.69-1,4a8.05,8.05,0,0,0,2.69.19C89.7,64.68,92.73,60,92.76,56.05Zm-59,28.54c.32-.17,1.35-.41,1.61-1s-.35-1.46-.78-2.07a2.88,2.88,0,0,0-3.73-1c-1.92.69-4.81-.85-5.51-2.87a3.24,3.24,0,0,1,1.72-4.39c.29-.14.73-.66.68-.74-.73-1.16-1.37-2.92-2.38-3.19s-2.87,1-3.19,2a9.28,9.28,0,0,0,.25,4.91C23.31,79.57,29.08,84.7,33.77,84.59Zm48.78-30c.24,1.43.41,2.53.62,3.63.15.79.35,1.57.53,2.36A8.63,8.63,0,0,0,86,59a9.18,9.18,0,0,0,1.65-3.36c.17-.75-.16-2.18-.67-2.41a7.14,7.14,0,0,0-3.62-.41C83,52.86,82.76,54.1,82.55,54.59ZM29.87,80.46c.93-1.06,2-2,1.87-2.17a28.85,28.85,0,0,0-3-4.16,1.59,1.59,0,0,0-1.47,0c-.5.82-1.31,2.14-1,2.64C27,78.07,28.37,79,29.87,80.46Z"/><path d="M60.5,49.66c1.58-1.92,3.12-3.87,4.76-5.74,1.19-1.37,2.49-2.65,3.76-4,.24-.24.77-.59.84-.52,1.56,1.38,3.07,2.82,4.59,4.25a5.86,5.86,0,0,1-1.08.73c-3.05,1.17-6.13,2.27-9.16,3.5A29,29,0,0,0,61,49.74Z"/><path d="M44.25,54.41c-.79.2-1.26.5-1.6.39a29,29,0,0,0-11.29-1.74c-.17,0-.4-.76-.58-1.18,0,0,.1-.1.15-.16,3.31-3.89,3.3-3.87,7.52-1,1.54,1,3.14,2,4.72,3C43.41,53.78,43.63,54,44.25,54.41Z"/><path d="M40.42,65.27c2.75.4,5,.7,7.23,1.07.31,0,.57.45.86.69-.31.15-.63.43-.94.42-3.25-.12-6.49-1.58-9.74,0-.14.07-.63-.21-.63-.34a.86.86,0,0,1,.35-.72C38.61,66,39.7,65.56,40.42,65.27Z"/><path d="M64.55,60.36c.66-3.26,4.41-6.52,7.36-6.6Z"/></svg>