<svg id="레이어_1" data-name="레이어 1" xmlns="http://www.w3.org/2000/svg" viewBox="0 0 30 30"><title>svg</title><path d="M3.3,8.19c-.16-.77-.09-.88.63-.94.4,0,.42-.23.36-.54s0-.69.53-.74A9.5,9.5,0,0,0,9.15,4.29a21.44,21.44,0,0,1,2.23-1.47,9.69,9.69,0,0,1,2-.58c.44-.11.78-.26.8-.79s.36-.67.84-.58,1,.15,1.44.28.67.47.78-.23A1,1,0,0,1,18,.87a6.73,6.73,0,0,1,1.08.93c.22.19.37.39.68,0a.8.8,0,0,1,.78-.07,4.53,4.53,0,0,1,1.06,1.08,28.83,28.83,0,0,1,4.09,7.38,28.62,28.62,0,0,1,.61,3.27,3,3,0,0,0,.54,1.06c.48.67,1.05,1.28,1.49,2a1.75,1.75,0,0,1,0,1.73,4.12,4.12,0,0,1-3,2.62.59.59,0,0,0-.32.46,8.83,8.83,0,0,1-3.34,6.42,5.91,5.91,0,0,1-4.92,1.65A13,13,0,0,1,13.46,28c-.92-.5-1.74-1.2-2.62-1.78a1.19,1.19,0,0,0-.63-.07A4.12,4.12,0,0,1,6,23.29a10,10,0,0,1,0-2,1.54,1.54,0,0,0-.06-.57c-.85-2-1.7-3.94-2.57-5.9-.18-.39-.53-.7-.72-1.09-.51-1-1-2.08-1.43-3.15-.08-.18.17-.5.29-.74s.27-.33.26-.48c0-.92-.06-.93.85-1.11C2.82,8.22,3.06,8.22,3.3,8.19Zm7.41,1.52c.13-.39.24-.8.39-1.18.05-.12.21-.19.33-.28a2,2,0,0,1,.26.34c.15.28.28.58.48,1,.19-.39.32-.63.44-.89.45-.95.45-.95,1.06-.27l.76-.74.54.6c.76-1.24.86-1.26,1.35-.37.61-.83.62-.83,1.17.08.59-.9.6-.9,1.22,0a1.83,1.83,0,0,1,.13.16c.2.4.4.5.68,0s.56-.46.81.06a6.93,6.93,0,0,0,.51.72l.36-.4c.26-.3.52-.26.68.08a13.45,13.45,0,0,1,1.61,4.12A1.79,1.79,0,0,0,24,14.09c.43.36.62,0,.86-.11s.56-.43.53-.61a18.54,18.54,0,0,0-1-4.16,63,63,0,0,0-3.05-5.66,9.8,9.8,0,0,0-.75-1,.55.55,0,0,0-.15.37c0,.33-.08.66-.11,1a8.11,8.11,0,0,1-.77-.66c-.52-.58-1-1.18-1.61-1.86a1.23,1.23,0,0,0,0,.32c0,.23,0,.46.06.69a4.44,4.44,0,0,1-.63-.15c-.59-.24-1.18-.5-1.77-.76-.39-.18-.63-.21-.7.35s-.48,1-1.22,1a4.92,4.92,0,0,0-2,.65c-.9.51-1.67,1.26-2.6,1.72-1.13.55-2.37.9-3.56,1.36-.19.08-.5.37-.47.45.27.71-.15.74-.66.78-.22,0-.56,0-.36.48s.08.75-.55.59A3.82,3.82,0,0,0,2.48,9c.1.3.21.6.3.91s.14.54.21.81l-.84.07,2.2,4.3C5.17,16.7,6,18.3,6.78,20c.22.46.28.82.91.54a10.53,10.53,0,0,1-.6-1.55,6.94,6.94,0,0,1-.34-2.4c.24-1.88.65-3.74,1-5.6a4.26,4.26,0,0,1,.51-1.13c.23-.4.5-.34.78,0,.9,1,.91,1,1.65-.11-.12.36-.23.72-.35,1.07s-.31.55-.65.19A7.31,7.31,0,0,1,9,10.19c-.3-.43-.49-.34-.68.07a3.56,3.56,0,0,0-.25.61c-.3,1.3-.63,2.59-.84,3.89a8.27,8.27,0,0,0-.16,2.92,10.16,10.16,0,0,0,1.29,3.37A17.65,17.65,0,0,0,13.68,27,7.05,7.05,0,0,0,19,28.44L15.18,24.5l.75-.41c1.32-.63,2.66-1.23,3.95-1.91.59-.32.69-.13.78.41.25,1.49.53,3,.8,4.46A3.82,3.82,0,0,0,23,25.33a9.19,9.19,0,0,0,1-4.81c-.11-1.29-.15-2.58-.28-3.86-.09-.9-.32-1.79-.38-2.7a12.45,12.45,0,0,0-1.85-5.34,1.3,1.3,0,0,0-.23.26c-.25.65-.55.4-.84,0s-.35-.52-.53-.8c-.77,1-.77,1-1.46-.07-.05-.07-.09-.2-.15-.21a.67.67,0,0,0-.43.06,3.1,3.1,0,0,0-.41.59l-.4-.65c0-.08-.07-.18-.16-.42l-.5,1.11L16,7.94l-.25-.33a1.42,1.42,0,0,0-.26.29c-.16.28-.29.57-.44.86L14.34,8l-.51,1-.75-.65c-.2.43-.39.9-.63,1.34s-.39.42-.58,0-.31-.65-.48-1Zm4.92,14.84,2.73,2.82c1,1,1,1,2.15.42.06,0,.14,0,.18-.08s.35-.34.35-.52a9.46,9.46,0,0,0-.12-1.59c-.13-.9-.3-1.79-.45-2.68-.09-.49-.34-.53-.75-.33C18.39,23.24,17.05,23.87,15.63,24.55Zm11.75-7.4a2.52,2.52,0,0,0-2.08-2.66.88.88,0,0,0-1,.77c-.13.76.34.63.79.61.67,0,1.31.46,1.2,1A2.6,2.6,0,0,1,25,18.76c-.66.3-.15.79-.29,1.16a2.47,2.47,0,0,0,.8.06A3.21,3.21,0,0,0,27.38,17.15ZM10,25.55c.09-.05.4-.12.47-.29s-.1-.43-.23-.61a.83.83,0,0,0-1.09-.3,1.43,1.43,0,0,1-1.62-.85,1,1,0,0,1,.5-1.29c.09,0,.22-.19.2-.22-.21-.34-.4-.86-.7-.94a1.12,1.12,0,0,0-.94.59,2.78,2.78,0,0,0,.08,1.45A4.08,4.08,0,0,0,10,25.55Zm14.35-8.83c.07.43.12.75.18,1.07s.11.47.16.7a2.62,2.62,0,0,0,.68-.46,2.53,2.53,0,0,0,.49-1c.05-.22-.05-.64-.2-.7a1.9,1.9,0,0,0-1.06-.12C24.51,16.22,24.44,16.58,24.37,16.72ZM8.87,24.34c.28-.31.59-.58.55-.64a7.62,7.62,0,0,0-.89-1.22.46.46,0,0,0-.44,0c-.14.24-.38.63-.29.78A7.17,7.17,0,0,0,8.87,24.34Z"/><path d="M17.88,15.27c.47-.56.92-1.13,1.41-1.68s.73-.78,1.1-1.16c.07-.07.23-.18.25-.16.46.41.9.83,1.35,1.25a1.81,1.81,0,0,1-.32.22c-.89.34-1.8.67-2.69,1a7.51,7.51,0,0,0-1,.53Z"/><path d="M13.1,16.67c-.23.06-.37.15-.47.12a8.32,8.32,0,0,0-3.32-.51c-.05,0-.11-.23-.17-.35l0,0c1-1.14,1-1.14,2.22-.31.45.31.92.58,1.39.87Z"/><path d="M12,19.87c.81.12,1.47.2,2.12.31.1,0,.17.14.26.21-.09,0-.19.12-.28.12-.95,0-1.91-.46-2.87,0,0,0-.18-.07-.18-.11a.27.27,0,0,1,.1-.21C11.45,20.07,11.77,20,12,19.87Z"/><path d="M19.08,18.42a2.66,2.66,0,0,1,2.16-1.94Z"/></svg>