<svg width="96" height="96" viewBox="0 0 96 96" fill="none" xmlns="http://www.w3.org/2000/svg">
<path fill-rule="evenodd" clip-rule="evenodd" d="M12 44C12 41.7909 13.7909 40 16 40C26.6087 40 36.7828 44.2143 44.2843 51.7157C51.7857 59.2172 56 69.3913 56 80C56 82.2091 54.2091 84 52 84C49.7909 84 48 82.2091 48 80C48 71.5131 44.6286 63.3737 38.6274 57.3726C32.6263 51.3714 24.4869 48 16 48C13.7909 48 12 46.2091 12 44Z" fill="#999999"/>
<path fill-rule="evenodd" clip-rule="evenodd" d="M12 16C12 13.7909 13.7909 12 16 12C34.0347 12 51.3308 19.1643 64.0833 31.9167C76.8357 44.6692 84 61.9653 84 80C84 82.2091 82.2091 84 80 84C77.7909 84 76 82.2091 76 80C76 64.087 69.6786 48.8258 58.4264 37.5736C47.1742 26.3214 31.913 20 16 20C13.7909 20 12 18.2091 12 16Z" fill="#999999"/>
<path fill-rule="evenodd" clip-rule="evenodd" d="M12 76C12 71.5817 15.5817 68 20 68C24.4183 68 28 71.5817 28 76C28 80.4183 24.4183 84 20 84C15.5817 84 12 80.4183 12 76Z" fill="#999999"/>
</svg>
